<mxfile host="Electron" agent="Mozilla/5.0 (Windows NT 10.0; Win64; x64) AppleWebKit/537.36 (KHTML, like Gecko) draw.io/28.1.2 Chrome/138.0.7204.243 Electron/37.4.0 Safari/537.36" version="28.1.2">
  <diagram name="Page-1" id="Wu4U2M72ThAFy5WZCZ_z">
    <mxGraphModel dx="556" dy="2473" grid="1" gridSize="10" guides="1" tooltips="1" connect="1" arrows="1" fold="1" page="1" pageScale="1" pageWidth="850" pageHeight="1100" math="0" shadow="0">
      <root>
        <mxCell id="0" />
        <mxCell id="1" parent="0" />
        <mxCell id="WwyIIt-NmOL42GBDvpWF-3" value="&lt;font style=&quot;color: rgb(0, 0, 0);&quot;&gt;crm_cust_info&lt;/font&gt;" style="swimlane;fontStyle=0;childLayout=stackLayout;horizontal=1;startSize=30;horizontalStack=0;resizeParent=1;resizeParentMax=0;resizeLast=0;collapsible=1;marginBottom=0;whiteSpace=wrap;html=1;fontSize=26;fillColor=#1ba1e2;fontColor=#ffffff;strokeColor=#006EAF;" vertex="1" parent="1">
          <mxGeometry x="495" y="-440" width="230" height="110" as="geometry" />
        </mxCell>
        <mxCell id="WwyIIt-NmOL42GBDvpWF-4" value="cst_id" style="text;strokeColor=default;fillColor=default;align=left;verticalAlign=middle;spacingLeft=4;spacingRight=4;overflow=hidden;points=[[0,0.5],[1,0.5]];portConstraint=eastwest;rotatable=0;whiteSpace=wrap;html=1;fontSize=26;strokeWidth=1;" vertex="1" parent="WwyIIt-NmOL42GBDvpWF-3">
          <mxGeometry y="30" width="230" height="40" as="geometry" />
        </mxCell>
        <mxCell id="WwyIIt-NmOL42GBDvpWF-27" value="cst_key" style="text;strokeColor=default;fillColor=default;align=left;verticalAlign=middle;spacingLeft=4;spacingRight=4;overflow=hidden;points=[[0,0.5],[1,0.5]];portConstraint=eastwest;rotatable=0;whiteSpace=wrap;html=1;fontSize=26;strokeWidth=1;" vertex="1" parent="WwyIIt-NmOL42GBDvpWF-3">
          <mxGeometry y="70" width="230" height="40" as="geometry" />
        </mxCell>
        <mxCell id="WwyIIt-NmOL42GBDvpWF-11" value="&lt;font style=&quot;font-size: 20px;&quot;&gt;customer information&lt;/font&gt;" style="text;html=1;align=center;verticalAlign=middle;resizable=0;points=[];autosize=1;strokeColor=none;fillColor=none;" vertex="1" parent="1">
          <mxGeometry x="505" y="-480" width="210" height="40" as="geometry" />
        </mxCell>
        <mxCell id="WwyIIt-NmOL42GBDvpWF-12" value="&lt;font style=&quot;color: rgb(0, 0, 0);&quot;&gt;crm_prd_info&lt;/font&gt;" style="swimlane;fontStyle=0;childLayout=stackLayout;horizontal=1;startSize=30;horizontalStack=0;resizeParent=1;resizeParentMax=0;resizeLast=0;collapsible=1;marginBottom=0;whiteSpace=wrap;html=1;fontSize=26;fillColor=#1ba1e2;fontColor=#ffffff;strokeColor=#006EAF;" vertex="1" parent="1">
          <mxGeometry x="510" y="-660" width="230" height="70" as="geometry" />
        </mxCell>
        <mxCell id="WwyIIt-NmOL42GBDvpWF-13" value="prd_key" style="text;strokeColor=default;fillColor=none;align=left;verticalAlign=middle;spacingLeft=4;spacingRight=4;overflow=hidden;points=[[0,0.5],[1,0.5]];portConstraint=eastwest;rotatable=0;whiteSpace=wrap;html=1;fontSize=26;" vertex="1" parent="WwyIIt-NmOL42GBDvpWF-12">
          <mxGeometry y="30" width="230" height="40" as="geometry" />
        </mxCell>
        <mxCell id="WwyIIt-NmOL42GBDvpWF-14" value="&lt;font style=&quot;font-size: 20px;&quot;&gt;current and history product information&lt;/font&gt;" style="text;html=1;align=center;verticalAlign=middle;resizable=0;points=[];autosize=1;strokeColor=none;fillColor=none;" vertex="1" parent="1">
          <mxGeometry x="440" y="-700" width="370" height="40" as="geometry" />
        </mxCell>
        <mxCell id="WwyIIt-NmOL42GBDvpWF-15" value="&lt;font style=&quot;color: rgb(0, 0, 0);&quot;&gt;crm_sales_details&lt;/font&gt;" style="swimlane;fontStyle=0;childLayout=stackLayout;horizontal=1;startSize=30;horizontalStack=0;resizeParent=1;resizeParentMax=0;resizeLast=0;collapsible=1;marginBottom=0;whiteSpace=wrap;html=1;fontSize=26;fillColor=#1ba1e2;fontColor=#ffffff;strokeColor=#006EAF;" vertex="1" parent="1">
          <mxGeometry x="120" y="-580" width="230" height="140" as="geometry" />
        </mxCell>
        <mxCell id="WwyIIt-NmOL42GBDvpWF-16" value="prd_key" style="text;strokeColor=default;fillColor=none;align=left;verticalAlign=middle;spacingLeft=4;spacingRight=4;overflow=hidden;points=[[0,0.5],[1,0.5]];portConstraint=eastwest;rotatable=0;whiteSpace=wrap;html=1;fontSize=26;" vertex="1" parent="WwyIIt-NmOL42GBDvpWF-15">
          <mxGeometry y="30" width="230" height="50" as="geometry" />
        </mxCell>
        <mxCell id="WwyIIt-NmOL42GBDvpWF-18" value="&lt;div&gt;&lt;div&gt;cst_id&lt;/div&gt;&lt;/div&gt;" style="text;strokeColor=default;fillColor=none;align=left;verticalAlign=middle;spacingLeft=4;spacingRight=4;overflow=hidden;points=[[0,0.5],[1,0.5]];portConstraint=eastwest;rotatable=0;whiteSpace=wrap;html=1;fontSize=26;" vertex="1" parent="WwyIIt-NmOL42GBDvpWF-15">
          <mxGeometry y="80" width="230" height="60" as="geometry" />
        </mxCell>
        <mxCell id="WwyIIt-NmOL42GBDvpWF-17" value="&lt;span style=&quot;font-size: 20px;&quot;&gt;transactional records about&amp;nbsp;&lt;/span&gt;&lt;div&gt;&lt;span style=&quot;font-size: 20px;&quot;&gt;sales and orders&lt;/span&gt;&lt;/div&gt;" style="text;html=1;align=center;verticalAlign=middle;resizable=0;points=[];autosize=1;strokeColor=none;fillColor=none;" vertex="1" parent="1">
          <mxGeometry x="100" y="-630" width="270" height="60" as="geometry" />
        </mxCell>
        <mxCell id="WwyIIt-NmOL42GBDvpWF-19" style="edgeStyle=orthogonalEdgeStyle;rounded=0;orthogonalLoop=1;jettySize=auto;html=1;exitX=1;exitY=0.5;exitDx=0;exitDy=0;entryX=0;entryY=0.5;entryDx=0;entryDy=0;strokeWidth=3;" edge="1" parent="1" source="WwyIIt-NmOL42GBDvpWF-16" target="WwyIIt-NmOL42GBDvpWF-13">
          <mxGeometry relative="1" as="geometry" />
        </mxCell>
        <mxCell id="WwyIIt-NmOL42GBDvpWF-20" style="edgeStyle=orthogonalEdgeStyle;rounded=0;orthogonalLoop=1;jettySize=auto;html=1;exitX=1;exitY=0.5;exitDx=0;exitDy=0;entryX=0;entryY=0.5;entryDx=0;entryDy=0;strokeWidth=3;" edge="1" parent="1" source="WwyIIt-NmOL42GBDvpWF-18" target="WwyIIt-NmOL42GBDvpWF-4">
          <mxGeometry relative="1" as="geometry" />
        </mxCell>
        <mxCell id="WwyIIt-NmOL42GBDvpWF-32" style="edgeStyle=orthogonalEdgeStyle;rounded=0;orthogonalLoop=1;jettySize=auto;html=1;exitX=0;exitY=0.75;exitDx=0;exitDy=0;entryX=1;entryY=0.5;entryDx=0;entryDy=0;strokeWidth=3;" edge="1" parent="1" source="WwyIIt-NmOL42GBDvpWF-21" target="WwyIIt-NmOL42GBDvpWF-27">
          <mxGeometry relative="1" as="geometry">
            <Array as="points">
              <mxPoint x="1015" y="-350" />
            </Array>
          </mxGeometry>
        </mxCell>
        <mxCell id="WwyIIt-NmOL42GBDvpWF-21" value="&lt;font style=&quot;color: rgb(0, 0, 0);&quot;&gt;erp_cust_az12&lt;/font&gt;" style="swimlane;fontStyle=0;childLayout=stackLayout;horizontal=1;startSize=30;horizontalStack=0;resizeParent=1;resizeParentMax=0;resizeLast=0;collapsible=1;marginBottom=0;whiteSpace=wrap;html=1;fontSize=26;fillColor=#fad7ac;strokeColor=#b46504;" vertex="1" parent="1">
          <mxGeometry x="1305" y="-530" width="230" height="70" as="geometry" />
        </mxCell>
        <mxCell id="WwyIIt-NmOL42GBDvpWF-22" value="cid" style="text;strokeColor=default;fillColor=default;align=left;verticalAlign=middle;spacingLeft=4;spacingRight=4;overflow=hidden;points=[[0,0.5],[1,0.5]];portConstraint=eastwest;rotatable=0;whiteSpace=wrap;html=1;fontSize=26;strokeWidth=1;" vertex="1" parent="WwyIIt-NmOL42GBDvpWF-21">
          <mxGeometry y="30" width="230" height="40" as="geometry" />
        </mxCell>
        <mxCell id="WwyIIt-NmOL42GBDvpWF-23" value="&lt;font style=&quot;font-size: 20px;&quot;&gt;extra customer information (birthdate)&lt;/font&gt;" style="text;html=1;align=center;verticalAlign=middle;resizable=0;points=[];autosize=1;strokeColor=#b46504;fillColor=none;" vertex="1" parent="1">
          <mxGeometry x="1240" y="-570" width="360" height="40" as="geometry" />
        </mxCell>
        <mxCell id="WwyIIt-NmOL42GBDvpWF-33" value="&lt;font style=&quot;color: rgb(0, 0, 0);&quot;&gt;erp_loc_a101&lt;/font&gt;" style="swimlane;fontStyle=0;childLayout=stackLayout;horizontal=1;startSize=30;horizontalStack=0;resizeParent=1;resizeParentMax=0;resizeLast=0;collapsible=1;marginBottom=0;whiteSpace=wrap;html=1;fontSize=26;fillColor=#fad7ac;strokeColor=#b46504;" vertex="1" parent="1">
          <mxGeometry x="1305" y="-260" width="230" height="70" as="geometry" />
        </mxCell>
        <mxCell id="WwyIIt-NmOL42GBDvpWF-34" value="cid" style="text;strokeColor=default;fillColor=default;align=left;verticalAlign=middle;spacingLeft=4;spacingRight=4;overflow=hidden;points=[[0,0.5],[1,0.5]];portConstraint=eastwest;rotatable=0;whiteSpace=wrap;html=1;fontSize=26;strokeWidth=1;" vertex="1" parent="WwyIIt-NmOL42GBDvpWF-33">
          <mxGeometry y="30" width="230" height="40" as="geometry" />
        </mxCell>
        <mxCell id="WwyIIt-NmOL42GBDvpWF-35" value="&lt;font style=&quot;font-size: 20px;&quot;&gt;location of customers&lt;/font&gt;" style="text;html=1;align=center;verticalAlign=middle;resizable=0;points=[];autosize=1;strokeColor=#b46504;fillColor=none;" vertex="1" parent="1">
          <mxGeometry x="1315" y="-300" width="210" height="40" as="geometry" />
        </mxCell>
        <mxCell id="WwyIIt-NmOL42GBDvpWF-37" style="edgeStyle=orthogonalEdgeStyle;rounded=0;orthogonalLoop=1;jettySize=auto;html=1;entryX=1;entryY=0.5;entryDx=0;entryDy=0;strokeWidth=3;" edge="1" parent="1" source="WwyIIt-NmOL42GBDvpWF-34" target="WwyIIt-NmOL42GBDvpWF-27">
          <mxGeometry relative="1" as="geometry" />
        </mxCell>
        <mxCell id="WwyIIt-NmOL42GBDvpWF-42" value="&lt;font style=&quot;color: rgb(0, 0, 0);&quot;&gt;erp_cat_g1v2&lt;/font&gt;" style="swimlane;fontStyle=0;childLayout=stackLayout;horizontal=1;startSize=30;horizontalStack=0;resizeParent=1;resizeParentMax=0;resizeLast=0;collapsible=1;marginBottom=0;whiteSpace=wrap;html=1;fontSize=26;fillColor=#fad7ac;strokeColor=#b46504;" vertex="1" parent="1">
          <mxGeometry x="1315" y="-700" width="230" height="70" as="geometry" />
        </mxCell>
        <mxCell id="WwyIIt-NmOL42GBDvpWF-43" value="id" style="text;strokeColor=default;fillColor=default;align=left;verticalAlign=middle;spacingLeft=4;spacingRight=4;overflow=hidden;points=[[0,0.5],[1,0.5]];portConstraint=eastwest;rotatable=0;whiteSpace=wrap;html=1;fontSize=26;strokeWidth=1;" vertex="1" parent="WwyIIt-NmOL42GBDvpWF-42">
          <mxGeometry y="30" width="230" height="40" as="geometry" />
        </mxCell>
        <mxCell id="WwyIIt-NmOL42GBDvpWF-44" value="&lt;font style=&quot;font-size: 20px;&quot;&gt;product categories&lt;/font&gt;" style="text;html=1;align=center;verticalAlign=middle;resizable=0;points=[];autosize=1;strokeColor=#b46504;fillColor=none;" vertex="1" parent="1">
          <mxGeometry x="1335" y="-740" width="190" height="40" as="geometry" />
        </mxCell>
        <mxCell id="WwyIIt-NmOL42GBDvpWF-45" style="edgeStyle=orthogonalEdgeStyle;rounded=0;orthogonalLoop=1;jettySize=auto;html=1;entryX=1;entryY=0.5;entryDx=0;entryDy=0;strokeWidth=3;" edge="1" parent="1" source="WwyIIt-NmOL42GBDvpWF-43" target="WwyIIt-NmOL42GBDvpWF-13">
          <mxGeometry relative="1" as="geometry" />
        </mxCell>
        <mxCell id="WwyIIt-NmOL42GBDvpWF-48" value="" style="rounded=1;whiteSpace=wrap;html=1;fillColor=none;dashed=1;strokeWidth=3;" vertex="1" parent="1">
          <mxGeometry x="60.5" y="-810" width="730" height="680" as="geometry" />
        </mxCell>
        <mxCell id="WwyIIt-NmOL42GBDvpWF-53" value="" style="rounded=1;whiteSpace=wrap;html=1;fillColor=none;dashed=1;strokeWidth=3;" vertex="1" parent="1">
          <mxGeometry x="930" y="-800" width="730" height="680" as="geometry" />
        </mxCell>
        <mxCell id="WwyIIt-NmOL42GBDvpWF-55" value="&lt;font style=&quot;font-size: 45px; color: rgb(0, 0, 0);&quot;&gt;ERP&lt;/font&gt;" style="rounded=1;whiteSpace=wrap;html=1;fillColor=#fad7ac;strokeColor=#b46504;" vertex="1" parent="1">
          <mxGeometry x="1182.5" y="-830" width="225" height="60" as="geometry" />
        </mxCell>
        <mxCell id="WwyIIt-NmOL42GBDvpWF-56" value="&lt;font style=&quot;font-size: 45px;&quot;&gt;CRM&lt;/font&gt;" style="rounded=1;whiteSpace=wrap;html=1;fillColor=#b1ddf0;strokeColor=#10739e;" vertex="1" parent="1">
          <mxGeometry x="313" y="-840" width="225" height="60" as="geometry" />
        </mxCell>
      </root>
    </mxGraphModel>
  </diagram>
</mxfile>
